<mxfile host="Electron" agent="Mozilla/5.0 (Windows NT 10.0; Win64; x64) AppleWebKit/537.36 (KHTML, like Gecko) draw.io/27.0.9 Chrome/134.0.6998.205 Electron/35.4.0 Safari/537.36" version="27.0.9">
  <diagram name="Page-1" id="tORxghGBVLg3WI4Okl9P">
    <mxGraphModel dx="1665" dy="875" grid="1" gridSize="10" guides="1" tooltips="1" connect="1" arrows="1" fold="1" page="1" pageScale="1" pageWidth="850" pageHeight="1100" math="0" shadow="0">
      <root>
        <mxCell id="0" />
        <mxCell id="1" parent="0" />
        <object c4Name="SmartFin" c4Type="SystemScopeBoundary" c4Application="Software System" label="&lt;font style=&quot;font-size: 16px&quot;&gt;&lt;b&gt;&lt;div style=&quot;text-align: left&quot;&gt;%c4Name%&lt;/div&gt;&lt;/b&gt;&lt;/font&gt;&lt;div style=&quot;text-align: left&quot;&gt;[%c4Application%]&lt;/div&gt;" placeholders="1" id="pIbP0Ps4VwwbU-npjN_O-1">
          <mxCell style="rounded=1;fontSize=11;whiteSpace=wrap;html=1;dashed=1;arcSize=20;fillColor=none;strokeColor=#666666;fontColor=#333333;labelBackgroundColor=none;align=left;verticalAlign=bottom;labelBorderColor=none;spacingTop=0;spacing=10;dashPattern=8 4;metaEdit=1;rotatable=0;perimeter=rectanglePerimeter;noLabel=0;labelPadding=0;allowArrows=0;connectable=0;expand=0;recursiveResize=0;editable=1;pointerEvents=0;absoluteArcSize=1;points=[[0.25,0,0],[0.5,0,0],[0.75,0,0],[1,0.25,0],[1,0.5,0],[1,0.75,0],[0.75,1,0],[0.5,1,0],[0.25,1,0],[0,0.75,0],[0,0.5,0],[0,0.25,0]];" parent="1" vertex="1">
            <mxGeometry x="330" width="400" height="1360" as="geometry" />
          </mxCell>
        </object>
        <mxCell id="pIbP0Ps4VwwbU-npjN_O-2" value="Register Account" style="ellipse;whiteSpace=wrap;html=1;" parent="1" vertex="1">
          <mxGeometry x="460" y="10" width="140" height="70" as="geometry" />
        </mxCell>
        <mxCell id="pIbP0Ps4VwwbU-npjN_O-3" value="User&lt;div&gt;&lt;br&gt;&lt;/div&gt;" style="shape=umlActor;verticalLabelPosition=bottom;verticalAlign=top;html=1;outlineConnect=0;" parent="1" vertex="1">
          <mxGeometry x="90" y="220" width="30" height="60" as="geometry" />
        </mxCell>
        <mxCell id="pIbP0Ps4VwwbU-npjN_O-4" value="Log In" style="ellipse;whiteSpace=wrap;html=1;" parent="1" vertex="1">
          <mxGeometry x="460" y="90" width="140" height="70" as="geometry" />
        </mxCell>
        <mxCell id="pIbP0Ps4VwwbU-npjN_O-5" value="Connect Bank Account" style="ellipse;whiteSpace=wrap;html=1;" parent="1" vertex="1">
          <mxGeometry x="460" y="170" width="140" height="70" as="geometry" />
        </mxCell>
        <mxCell id="pIbP0Ps4VwwbU-npjN_O-6" value="Track Upcoming Charges" style="ellipse;whiteSpace=wrap;html=1;" parent="1" vertex="1">
          <mxGeometry x="460" y="610" width="140" height="70" as="geometry" />
        </mxCell>
        <mxCell id="pIbP0Ps4VwwbU-npjN_O-7" value="Track Earnings and Spendings" style="ellipse;whiteSpace=wrap;html=1;" parent="1" vertex="1">
          <mxGeometry x="460" y="450" width="140" height="70" as="geometry" />
        </mxCell>
        <mxCell id="pIbP0Ps4VwwbU-npjN_O-8" value="Extract Receipt Data" style="ellipse;whiteSpace=wrap;html=1;" parent="1" vertex="1">
          <mxGeometry x="460" y="530" width="140" height="70" as="geometry" />
        </mxCell>
        <mxCell id="pIbP0Ps4VwwbU-npjN_O-10" value="Set Reminders" style="ellipse;whiteSpace=wrap;html=1;" parent="1" vertex="1">
          <mxGeometry x="460" y="690" width="140" height="70" as="geometry" />
        </mxCell>
        <mxCell id="pIbP0Ps4VwwbU-npjN_O-12" value="Set Savings Plan" style="ellipse;whiteSpace=wrap;html=1;" parent="1" vertex="1">
          <mxGeometry x="460" y="890" width="140" height="70" as="geometry" />
        </mxCell>
        <mxCell id="pIbP0Ps4VwwbU-npjN_O-13" value="View/Edit Calendar" style="ellipse;whiteSpace=wrap;html=1;" parent="1" vertex="1">
          <mxGeometry x="460" y="970" width="140" height="70" as="geometry" />
        </mxCell>
        <mxCell id="pIbP0Ps4VwwbU-npjN_O-14" value="Manage Notifications" style="ellipse;whiteSpace=wrap;html=1;" parent="1" vertex="1">
          <mxGeometry x="460" y="1110" width="140" height="70" as="geometry" />
        </mxCell>
        <mxCell id="pIbP0Ps4VwwbU-npjN_O-16" value="View Analysis/Report" style="ellipse;whiteSpace=wrap;html=1;" parent="1" vertex="1">
          <mxGeometry x="460" y="1190" width="140" height="70" as="geometry" />
        </mxCell>
        <mxCell id="pIbP0Ps4VwwbU-npjN_O-17" value="&lt;div&gt;Bank&lt;/div&gt;" style="shape=umlActor;verticalLabelPosition=bottom;verticalAlign=top;html=1;outlineConnect=0;" parent="1" vertex="1">
          <mxGeometry x="770" y="190" width="30" height="60" as="geometry" />
        </mxCell>
        <mxCell id="pIbP0Ps4VwwbU-npjN_O-18" value="Cancel Subscriptions" style="ellipse;whiteSpace=wrap;html=1;" parent="1" vertex="1">
          <mxGeometry x="460" y="1280" width="140" height="70" as="geometry" />
        </mxCell>
        <mxCell id="pIbP0Ps4VwwbU-npjN_O-20" value="" style="endArrow=none;html=1;rounded=0;exitX=1;exitY=0.3333333333333333;exitDx=0;exitDy=0;exitPerimeter=0;entryX=0;entryY=0.5;entryDx=0;entryDy=0;" parent="1" source="pIbP0Ps4VwwbU-npjN_O-3" target="pIbP0Ps4VwwbU-npjN_O-2" edge="1">
          <mxGeometry width="50" height="50" relative="1" as="geometry">
            <mxPoint x="370" y="690" as="sourcePoint" />
            <mxPoint x="420" y="640" as="targetPoint" />
          </mxGeometry>
        </mxCell>
        <mxCell id="pIbP0Ps4VwwbU-npjN_O-21" value="" style="endArrow=none;html=1;rounded=0;exitX=1;exitY=0.3333333333333333;exitDx=0;exitDy=0;exitPerimeter=0;entryX=0;entryY=0.5;entryDx=0;entryDy=0;" parent="1" source="pIbP0Ps4VwwbU-npjN_O-3" target="pIbP0Ps4VwwbU-npjN_O-4" edge="1">
          <mxGeometry width="50" height="50" relative="1" as="geometry">
            <mxPoint x="310" y="445" as="sourcePoint" />
            <mxPoint x="510" y="280" as="targetPoint" />
          </mxGeometry>
        </mxCell>
        <mxCell id="pIbP0Ps4VwwbU-npjN_O-22" value="" style="endArrow=none;html=1;rounded=0;exitX=1;exitY=0.3333333333333333;exitDx=0;exitDy=0;exitPerimeter=0;entryX=0.011;entryY=0.439;entryDx=0;entryDy=0;entryPerimeter=0;" parent="1" source="pIbP0Ps4VwwbU-npjN_O-3" target="pIbP0Ps4VwwbU-npjN_O-7" edge="1">
          <mxGeometry width="50" height="50" relative="1" as="geometry">
            <mxPoint x="420" y="535" as="sourcePoint" />
            <mxPoint x="620" y="370" as="targetPoint" />
          </mxGeometry>
        </mxCell>
        <mxCell id="pIbP0Ps4VwwbU-npjN_O-24" value="" style="endArrow=none;html=1;rounded=0;entryX=0;entryY=0.5;entryDx=0;entryDy=0;exitX=1;exitY=1;exitDx=0;exitDy=0;exitPerimeter=0;" parent="1" source="pIbP0Ps4VwwbU-npjN_O-3" target="pIbP0Ps4VwwbU-npjN_O-10" edge="1">
          <mxGeometry width="50" height="50" relative="1" as="geometry">
            <mxPoint x="420" y="555" as="sourcePoint" />
            <mxPoint x="620" y="390" as="targetPoint" />
          </mxGeometry>
        </mxCell>
        <mxCell id="pIbP0Ps4VwwbU-npjN_O-26" value="" style="endArrow=none;html=1;rounded=0;entryX=0;entryY=0.5;entryDx=0;entryDy=0;exitX=1;exitY=0.3333333333333333;exitDx=0;exitDy=0;exitPerimeter=0;" parent="1" source="pIbP0Ps4VwwbU-npjN_O-3" target="pIbP0Ps4VwwbU-npjN_O-38" edge="1">
          <mxGeometry width="50" height="50" relative="1" as="geometry">
            <mxPoint x="220" y="240" as="sourcePoint" />
            <mxPoint x="610" y="410" as="targetPoint" />
          </mxGeometry>
        </mxCell>
        <mxCell id="pIbP0Ps4VwwbU-npjN_O-27" value="" style="endArrow=none;html=1;rounded=0;entryX=0;entryY=0.5;entryDx=0;entryDy=0;exitX=1;exitY=1;exitDx=0;exitDy=0;exitPerimeter=0;" parent="1" source="pIbP0Ps4VwwbU-npjN_O-3" target="pIbP0Ps4VwwbU-npjN_O-6" edge="1">
          <mxGeometry width="50" height="50" relative="1" as="geometry">
            <mxPoint x="280" y="825" as="sourcePoint" />
            <mxPoint x="480" y="660" as="targetPoint" />
          </mxGeometry>
        </mxCell>
        <mxCell id="pIbP0Ps4VwwbU-npjN_O-28" value="" style="endArrow=none;html=1;rounded=0;exitX=0;exitY=1;exitDx=0;exitDy=0;exitPerimeter=0;entryX=0.015;entryY=0.587;entryDx=0;entryDy=0;entryPerimeter=0;" parent="1" source="pIbP0Ps4VwwbU-npjN_O-3" target="pIbP0Ps4VwwbU-npjN_O-12" edge="1">
          <mxGeometry width="50" height="50" relative="1" as="geometry">
            <mxPoint x="280" y="865" as="sourcePoint" />
            <mxPoint x="480" y="700" as="targetPoint" />
          </mxGeometry>
        </mxCell>
        <mxCell id="pIbP0Ps4VwwbU-npjN_O-29" value="" style="endArrow=none;html=1;rounded=0;exitX=0;exitY=1;exitDx=0;exitDy=0;exitPerimeter=0;entryX=0;entryY=0.5;entryDx=0;entryDy=0;" parent="1" source="pIbP0Ps4VwwbU-npjN_O-3" target="pIbP0Ps4VwwbU-npjN_O-13" edge="1">
          <mxGeometry width="50" height="50" relative="1" as="geometry">
            <mxPoint x="270" y="895" as="sourcePoint" />
            <mxPoint x="470" y="730" as="targetPoint" />
          </mxGeometry>
        </mxCell>
        <mxCell id="pIbP0Ps4VwwbU-npjN_O-30" value="" style="endArrow=none;html=1;rounded=0;entryX=0;entryY=0.5;entryDx=0;entryDy=0;exitX=0;exitY=1;exitDx=0;exitDy=0;exitPerimeter=0;" parent="1" source="pIbP0Ps4VwwbU-npjN_O-3" target="pIbP0Ps4VwwbU-npjN_O-14" edge="1">
          <mxGeometry width="50" height="50" relative="1" as="geometry">
            <mxPoint x="170" y="260" as="sourcePoint" />
            <mxPoint x="470" y="760" as="targetPoint" />
          </mxGeometry>
        </mxCell>
        <mxCell id="pIbP0Ps4VwwbU-npjN_O-33" value="" style="endArrow=none;html=1;rounded=0;exitX=0;exitY=1;exitDx=0;exitDy=0;exitPerimeter=0;entryX=0;entryY=0.5;entryDx=0;entryDy=0;" parent="1" source="pIbP0Ps4VwwbU-npjN_O-3" target="pIbP0Ps4VwwbU-npjN_O-16" edge="1">
          <mxGeometry width="50" height="50" relative="1" as="geometry">
            <mxPoint x="290" y="1180" as="sourcePoint" />
            <mxPoint x="550" y="1940" as="targetPoint" />
          </mxGeometry>
        </mxCell>
        <mxCell id="pIbP0Ps4VwwbU-npjN_O-35" value="" style="endArrow=none;html=1;rounded=0;exitX=0;exitY=1;exitDx=0;exitDy=0;exitPerimeter=0;entryX=0;entryY=0.5;entryDx=0;entryDy=0;" parent="1" source="pIbP0Ps4VwwbU-npjN_O-3" target="pIbP0Ps4VwwbU-npjN_O-18" edge="1">
          <mxGeometry width="50" height="50" relative="1" as="geometry">
            <mxPoint x="380" y="1325" as="sourcePoint" />
            <mxPoint x="520" y="1250" as="targetPoint" />
          </mxGeometry>
        </mxCell>
        <mxCell id="pIbP0Ps4VwwbU-npjN_O-36" value="&lt;div&gt;Time&lt;/div&gt;" style="shape=umlActor;verticalLabelPosition=bottom;verticalAlign=top;html=1;outlineConnect=0;" parent="1" vertex="1">
          <mxGeometry x="780" y="870" width="30" height="60" as="geometry" />
        </mxCell>
        <mxCell id="pIbP0Ps4VwwbU-npjN_O-38" value="Sync Transactions" style="ellipse;whiteSpace=wrap;html=1;" parent="1" vertex="1">
          <mxGeometry x="460" y="290" width="140" height="70" as="geometry" />
        </mxCell>
        <mxCell id="pIbP0Ps4VwwbU-npjN_O-39" value="Provide Statements" style="ellipse;whiteSpace=wrap;html=1;" parent="1" vertex="1">
          <mxGeometry x="460" y="370" width="140" height="70" as="geometry" />
        </mxCell>
        <mxCell id="pIbP0Ps4VwwbU-npjN_O-41" value="" style="endArrow=none;html=1;rounded=0;entryX=1;entryY=0.5;entryDx=0;entryDy=0;" parent="1" target="pIbP0Ps4VwwbU-npjN_O-39" edge="1">
          <mxGeometry width="50" height="50" relative="1" as="geometry">
            <mxPoint x="770" y="210" as="sourcePoint" />
            <mxPoint x="660" y="405" as="targetPoint" />
          </mxGeometry>
        </mxCell>
        <mxCell id="pIbP0Ps4VwwbU-npjN_O-49" value="LLM (OCR)" style="shape=umlActor;verticalLabelPosition=bottom;verticalAlign=top;html=1;outlineConnect=0;" parent="1" vertex="1">
          <mxGeometry x="780" y="680" width="30" height="60" as="geometry" />
        </mxCell>
        <mxCell id="pIbP0Ps4VwwbU-npjN_O-51" value="" style="endArrow=none;html=1;rounded=0;exitX=1;exitY=0.5;exitDx=0;exitDy=0;entryX=0;entryY=0.3333333333333333;entryDx=0;entryDy=0;entryPerimeter=0;" parent="1" source="pIbP0Ps4VwwbU-npjN_O-8" target="pIbP0Ps4VwwbU-npjN_O-49" edge="1">
          <mxGeometry width="50" height="50" relative="1" as="geometry">
            <mxPoint x="650" y="710" as="sourcePoint" />
            <mxPoint x="830" y="815" as="targetPoint" />
          </mxGeometry>
        </mxCell>
        <mxCell id="Oe0JLFc7FqbPrqtRpnBS-1" value="&amp;lt;&amp;lt;include&amp;gt;&amp;gt;" style="html=1;verticalAlign=bottom;labelBackgroundColor=none;endArrow=open;endFill=0;dashed=1;rounded=0;entryX=0.5;entryY=1;entryDx=0;entryDy=0;exitX=0.5;exitY=0;exitDx=0;exitDy=0;" parent="1" source="pIbP0Ps4VwwbU-npjN_O-38" target="pIbP0Ps4VwwbU-npjN_O-5" edge="1">
          <mxGeometry width="160" relative="1" as="geometry">
            <mxPoint x="340" y="410" as="sourcePoint" />
            <mxPoint x="500" y="410" as="targetPoint" />
          </mxGeometry>
        </mxCell>
        <mxCell id="Oe0JLFc7FqbPrqtRpnBS-2" value="" style="endArrow=none;html=1;rounded=0;exitX=1;exitY=0.3333333333333333;exitDx=0;exitDy=0;exitPerimeter=0;entryX=0;entryY=0.5;entryDx=0;entryDy=0;" parent="1" source="pIbP0Ps4VwwbU-npjN_O-3" target="pIbP0Ps4VwwbU-npjN_O-5" edge="1">
          <mxGeometry width="50" height="50" relative="1" as="geometry">
            <mxPoint x="130" y="250" as="sourcePoint" />
            <mxPoint x="470.00000000000296" y="175" as="targetPoint" />
          </mxGeometry>
        </mxCell>
        <mxCell id="Oe0JLFc7FqbPrqtRpnBS-4" value="Send Reminders" style="ellipse;whiteSpace=wrap;html=1;" parent="1" vertex="1">
          <mxGeometry x="460" y="810" width="140" height="70" as="geometry" />
        </mxCell>
        <mxCell id="Oe0JLFc7FqbPrqtRpnBS-5" value="" style="endArrow=none;html=1;rounded=0;exitX=1;exitY=0.5;exitDx=0;exitDy=0;entryX=0;entryY=0.3333333333333333;entryDx=0;entryDy=0;entryPerimeter=0;" parent="1" source="Oe0JLFc7FqbPrqtRpnBS-4" target="pIbP0Ps4VwwbU-npjN_O-36" edge="1">
          <mxGeometry width="50" height="50" relative="1" as="geometry">
            <mxPoint x="609.9999999999968" y="1165" as="sourcePoint" />
            <mxPoint x="790" y="1000" as="targetPoint" />
          </mxGeometry>
        </mxCell>
        <mxCell id="Oe0JLFc7FqbPrqtRpnBS-6" value="&amp;lt;&amp;lt;extend&amp;gt;&amp;gt;" style="html=1;verticalAlign=bottom;labelBackgroundColor=none;endArrow=open;endFill=0;dashed=1;rounded=0;exitX=0.5;exitY=1;exitDx=0;exitDy=0;entryX=0.5;entryY=0;entryDx=0;entryDy=0;" parent="1" source="pIbP0Ps4VwwbU-npjN_O-10" target="Oe0JLFc7FqbPrqtRpnBS-4" edge="1">
          <mxGeometry width="160" relative="1" as="geometry">
            <mxPoint x="350" y="1050" as="sourcePoint" />
            <mxPoint x="510" y="1050" as="targetPoint" />
          </mxGeometry>
        </mxCell>
      </root>
    </mxGraphModel>
  </diagram>
</mxfile>
